<svg id="Layer_1" data-name="Layer 1" xmlns="http://www.w3.org/2000/svg" viewBox="0 0 145 145"><defs><style>.cls-1{fill:#fbfdfe;}.cls-2{fill:#04a4df;}</style></defs><path class="cls-1" d="M273,348.89h97v145H225v-145h47c-3.68,6.62-6.18,13.27-1.31,20.49,4.53,6.74,11,9.29,18.83,9.29,17.17,0,34.33,0,51.5.05a37.58,37.58,0,0,1,6.06,1l.05,1.89a35.83,35.83,0,0,1-5.13,2.17c-3.21.82-6.53,1.27-9.77,2-12.91,3-18.32,9.64-18.4,22.87s.38,26.35-.18,39.49a108.74,108.74,0,0,1-3.53,22.06c-4.05,15.87-22.9,16.5-31.6,6.7a31.28,31.28,0,0,0-2.62-2.37,1.94,1.94,0,0,0,0,2.12,12.88,12.88,0,0,0,1.43,2,36.64,36.64,0,0,0,26,12.06c20.86.8,36.2-14.47,36.49-36.44.23-17.16.5-34.35-.13-51.49-.32-8.77,2.75-13.78,10.91-16.49,4.72-1.56,8.91-4.46,9.26-10s-2.35-10.59-7.15-12.85a44.93,44.93,0,0,0-17-4.51c-17-.58-34-.21-51-.22C275.49,358.67,274.58,357.89,273,348.89Zm-20.81,78.88c-.45,7.69-1.71,15.89,7.73,20.07-1.45,11.14,3.39,18.5,12.66,22.19,2.91,0,5.47.06,8,0,18.17-.45,29.13-11.57,29.24-29.68.06-11.82.07-23.65.1-35.47,0-10,0-10,7.9-14.67-17.45-4.63-27.11,2.75-27,17.1.06,11,.36,22-.16,33a57.65,57.65,0,0,1-3.39,17c-2.38,6.46-9.43,9-15.65,6.73l-2.24-7.16-1.18.32.72,6.8c-5.92-4-7-9.11-6.77-15.13,1.29,0,2.11,0,2.92,0,15.62.08,23.72-8,23.78-23.61,0-8.33.11-16.65,0-25,0-4.59-.52-9.27,7.66-9.85-14.9-3.83-21.65,1.14-21.73,14.08-.05,7.17.23,14.34-.11,21.49a48.23,48.23,0,0,1-2.18,12.69c-1.69,5.11-6,6.94-12.11,5.89-4.8-.82-6.29-4.5-6.59-8.75-.22-3.12,0-6.26,0-9.05,2.41-1,4.14-1.66,5.75-2.51,5-2.61,8.63-6.3,8.7-12.36.08-6.33-3.72-10.19-8.91-12.73a24.52,24.52,0,0,0-21.27-.41c-5.69,2.47-10,6.44-9.93,13.09s4.32,10.81,10.07,13C242.44,426.32,247.13,426.72,252.19,427.77Z" transform="translate(-225 -348.89)"/><path class="cls-2" d="M273,348.89c1.58,9,2.49,9.78,11.66,9.79,17,0,34-.36,51,.22a44.93,44.93,0,0,1,17,4.51c4.8,2.26,7.49,7.25,7.15,12.85s-4.54,8.48-9.26,10c-8.16,2.71-11.23,7.72-10.91,16.49.63,17.14.36,34.33.13,51.49-.29,22-15.63,37.24-36.49,36.44a36.64,36.64,0,0,1-26-12.06,12.88,12.88,0,0,1-1.43-2,1.94,1.94,0,0,1,0-2.12,31.28,31.28,0,0,1,2.62,2.37c8.7,9.8,27.55,9.17,31.6-6.7a108.74,108.74,0,0,0,3.53-22.06c.56-13.14.11-26.32.18-39.49s5.49-19.91,18.4-22.87c3.24-.74,6.56-1.19,9.77-2a35.83,35.83,0,0,0,5.13-2.17l-.05-1.89a37.58,37.58,0,0,0-6.06-1c-17.17-.08-34.33,0-51.5-.05-7.8,0-14.3-2.55-18.83-9.29-4.87-7.22-2.37-13.87,1.31-20.49Z" transform="translate(-225 -348.89)"/><path class="cls-2" d="M252.19,427.77c-5.06-1-9.75-1.45-14-3-5.75-2.15-10-6.32-10.07-13s4.24-10.62,9.93-13.09a24.52,24.52,0,0,1,21.27.41c5.19,2.54,9,6.4,8.91,12.73-.07,6.06-3.7,9.75-8.7,12.36-1.61.85-3.34,1.47-5.75,2.51,0,2.79-.18,5.93,0,9.05.3,4.25,1.79,7.93,6.59,8.75,6.15,1.05,10.42-.78,12.11-5.89a48.23,48.23,0,0,0,2.18-12.69c.34-7.15.06-14.32.11-21.49.08-12.94,6.83-17.91,21.73-14.08-8.18.58-7.7,5.26-7.66,9.85.07,8.33,0,16.65,0,25-.06,15.66-8.16,23.69-23.78,23.61-.81,0-1.63,0-2.92,0-.2,6,.85,11.17,6.77,15.13l-.72-6.8,1.18-.32,2.24,7.16c6.22,2.3,13.27-.27,15.65-6.73a57.65,57.65,0,0,0,3.39-17c.52-11,.22-22,.16-33-.08-14.35,9.58-21.73,27-17.1-7.88,4.64-7.88,4.64-7.9,14.67,0,11.82,0,23.65-.1,35.47-.11,18.11-11.07,29.23-29.24,29.68-2.55.06-5.11,0-8,0-9.27-3.69-14.11-11-12.66-22.19C250.48,443.66,251.74,435.46,252.19,427.77Z" transform="translate(-225 -348.89)"/></svg>